<?xml version="1.0" encoding="UTF-8"?>
<svg id="Layer_2" data-name="Layer 2" xmlns="http://www.w3.org/2000/svg" viewBox="0 0 65.26 34.3">
  <defs>
    <style>
      .cls-1 {
        fill: #6366f1;
      }

      .cls-2 {
        fill: #333;
      }
    </style>
  </defs>
  <g id="Layer_1-2" data-name="Layer 1">
    <g>
      <g>
        <path class="cls-2" d="M9.36,24.61s-.12-.07-.22-.2c-.94-1.01-1.51-1.67-1.71-1.97-.2-.3-.3-.65-.3-1.05,0-.34.05-.79.16-1.35.06-.34.12-.73.18-1.19l-.04-.04c-1.51,1.46-2.71,2.19-3.61,2.19-.46,0-.87-.2-1.25-.6-1-1.07-1.68-1.88-2.04-2.41-.36-.54-.54-1.18-.54-1.92,0-.82.28-1.89.85-3.22,1.12-2.53,2.47-4.65,4.06-6.38,1.58-1.72,3.18-3.03,4.8-3.92,1.53-.83,2.82-1.25,3.88-1.25,1.51,0,2.26.67,2.26,2.02,0,.83-.3,1.87-.9,3.13-.42.93-.68,1.62-.78,2.08-.07.35-.15.52-.23.52-.04,0-.08-.02-.13-.07-1.41-1.52-2.11-2.49-2.11-2.91,0-.2.05-.4.16-.58l.07-.22c-.13,0-.37.13-.72.38-.7.51-1.25.95-1.66,1.32-2.82,2.57-4.67,5.01-5.56,7.33-.39,1.01-.58,1.8-.58,2.37,0,.36.08.55.23.58.18,0,1.01-.73,2.48-2.2,1.04-1.05,1.56-1.62,1.57-1.72-.05-.02-.11-.04-.2-.05-.16,0-.35.01-.57.04-.22.02-.42.04-.59.04-.18-.01-.28-.05-.29-.13.01-.04.29-.55.83-1.54.26-.47.48-.81.64-1.02.16-.21.37-.36.62-.43.25-.08.64-.15,1.17-.23.39-.06.87-.14,1.46-.25,1.38-.33,3.1-.51,5.15-.56.47.02.79.19.98.51.18.31.38.84.6,1.57.29.89.43,1.36.43,1.41,0,.06-.04.09-.11.09s-.18-.02-.32-.04c-.14-.03-.42-.05-.86-.06-.57.02-1.34.05-2.32.07-.98.02-1.53.05-1.65.07-.12.02-.21.1-.25.22-1.11,3.43-1.7,6.05-1.77,7.86-.04.47-.09.78-.16.94-.51,1.11-.81,1.87-.9,2.29-.06.33-.13.49-.22.49Z"/>
        <path class="cls-2" d="M14.72,22.47c-.12,0-.35-.48-.7-1.44-.35-.96-.52-1.6-.52-1.94.82-2.28,1.3-3.58,1.45-3.92.12-.28.18-.46.18-.56-.01-.07-.07-.16-.18-.25-.47-.39-.7-.66-.7-.83,0-.11.07-.22.2-.34.65-.57,1.12-.88,1.41-.94.13-.02.23-.1.3-.23.07-.13.26-.51.57-1.15.98-1.99,1.56-3.13,1.75-3.43.06-.08.09-.16.09-.22,0-.07-.43-.5-1.3-1.28-.06-.05-.21-.19-.43-.43-.04-.02-.05-.07-.05-.13,0-.28.53-.63,1.58-1.06,1.05-.43,2.33-.82,3.82-1.17,1.93-.45,3.56-.67,4.91-.67,1.6,0,2.44.34,2.53,1.03.02.42.04.81.04,1.17,0,.66-.06,1.27-.17,1.82-.11.55-.44,1.11-.97,1.67-.53.56-1.32,1.17-2.37,1.83-1.05.66-2.51,1.52-4.39,2.59-.19.12-.31.19-.36.2-.14.07-.28.17-.42.29l2.46.07c1.18.01,2.17.05,2.96.13s1.4.24,1.82.5c.42.26.63.74.63,1.44,0,.58-.15,1.34-.45,2.28-.02.07-.08.15-.17.23-.09.08-.2.12-.32.12s-.26-.08-.42-.25c-.11-.12-.23-.22-.36-.29-.29-.17-.97-.28-2.04-.33-2.32-.16-4.02-.28-5.08-.38-.84-.08-1.46-.13-1.84-.13-.33,0-.52.05-.6.16s-.36.89-.87,2.33c-.04.27-.19.64-.45,1.14-.63,1.2-1.14,1.99-1.54,2.37ZM20.74,9.43l1.3-.81c1.25-.69,2.44-1.48,3.58-2.37-.02-.02-.05-.04-.09-.04-1.7.17-2.71.31-3.04.43-.23.08-.39.21-.47.38-.87,1.37-1.3,2.15-1.3,2.33l.02.07Z"/>
        <path class="cls-2" d="M28.31,22.24c-1.07-.29-1.85-.45-2.35-.47-.28,0-.42-.04-.42-.11,0-.1.33-.52.99-1.28,1.05-1.2,1.73-1.81,2.06-1.81.06,0,.11.01.14.04.03.02.08.04.15.04.13,0,.2-.09.2-.27-.46-1.01-.78-1.63-.98-1.84-.13-.23-.2-.38-.2-.45.01-.11.06-.25.14-.42.08-.17.18-.42.29-.73,1.47-3.99,2.55-6.67,3.23-8.06.49-1.02.74-1.7.74-2.02,0-.16-.08-.26-.23-.33-.15-.06-.39-.11-.71-.14-.49-.05-1.19-.2-2.08-.47-.04-.01-.05-.04-.05-.09.01-.14.18-.41.51-.79.65-.77,1.23-1.37,1.73-1.79.01,0,.03,0,.04-.03.02-.02.06-.03.14-.03.39-.04,1.09-.14,2.11-.33,3.22-.57,5.57-.85,7.06-.85,1.01,0,1.74.14,2.19.42.37.24.62.57.73.99.11.42.2.93.24,1.52.01.36.05.75.11,1.16-.01.48-.34,1.04-.99,1.66-1.01.96-2.52,2.12-4.52,3.47-.07.04-.11.08-.13.14,1.51-.16,2.69-.23,3.56-.23,1.22,0,1.96.23,2.22.7.26.46.45,1.21.54,2.25.1.7.14,1.08.14,1.14-.02.82-1.9,2.21-5.62,4.17-3.05,1.6-6.03,2.99-8.96,4.16-1.16.47-1.84.7-2.06.7ZM30.13,18.1c1.7-.71,3.39-1.48,5.07-2.3,1.68-.83,3.1-1.56,4.26-2.2,1.16-.64,1.74-.99,1.74-1.05-.99.01-2.13.13-3.41.34-1.2.22-2.11.33-2.73.33-.41,0-.81-.09-1.21-.27-.19-.1-.37-.14-.52-.14-.51,0-1.09,1.19-1.75,3.58-.11.14-.6.7-1.46,1.68l.02.04ZM34.89,8.17c1.98-1.53,3.49-2.65,4.53-3.36,1.07-.76,1.61-1.2,1.61-1.32,0-.07-.11-.11-.33-.11-.33,0-1.13.08-2.42.25-.3.04-.55.05-.76.05-.36.02-.63.07-.81.14s-.34.25-.47.53c-.13.28-.3.73-.51,1.36-.21.62-.49,1.44-.85,2.45Z"/>
        <path class="cls-2" d="M53.8,24.61s-.12-.07-.22-.2c-.94-1.01-1.51-1.67-1.71-1.97-.2-.3-.3-.65-.3-1.05,0-.34.05-.79.16-1.35.06-.34.12-.73.18-1.19l-.04-.04c-1.51,1.46-2.71,2.19-3.61,2.19-.46,0-.87-.2-1.25-.6-1-1.07-1.68-1.88-2.04-2.41-.36-.54-.54-1.18-.54-1.92,0-.82.28-1.89.85-3.22,1.12-2.53,2.47-4.65,4.06-6.38,1.58-1.72,3.18-3.03,4.8-3.92,1.53-.83,2.82-1.25,3.88-1.25,1.51,0,2.26.67,2.26,2.02,0,.83-.3,1.87-.9,3.13-.42.93-.68,1.62-.78,2.08-.07.35-.15.52-.23.52-.04,0-.08-.02-.13-.07-1.41-1.52-2.11-2.49-2.11-2.91,0-.2.05-.4.16-.58l.07-.22c-.13,0-.37.13-.72.38-.7.51-1.25.95-1.66,1.32-2.82,2.57-4.67,5.01-5.56,7.33-.39,1.01-.58,1.8-.58,2.37,0,.36.08.55.23.58.18,0,1.01-.73,2.48-2.2,1.04-1.05,1.56-1.62,1.57-1.72-.05-.02-.11-.04-.2-.05-.16,0-.35.01-.57.04-.22.02-.42.04-.59.04-.18-.01-.28-.05-.29-.13.01-.04.29-.55.83-1.54.26-.47.48-.81.64-1.02.16-.21.37-.36.62-.43.25-.08.64-.15,1.17-.23.39-.06.87-.14,1.46-.25,1.38-.33,3.1-.51,5.15-.56.47.02.79.19.98.51.18.31.38.84.6,1.57.29.89.43,1.36.43,1.41,0,.06-.04.09-.11.09s-.18-.02-.32-.04c-.14-.03-.42-.05-.86-.06-.57.02-1.34.05-2.32.07-.98.02-1.53.05-1.65.07-.12.02-.21.1-.25.22-1.11,3.43-1.7,6.05-1.77,7.86-.04.47-.09.78-.16.94-.51,1.11-.81,1.87-.9,2.29-.06.33-.13.49-.22.49Z"/>
        <path class="cls-1" d="M61.46,19.93c-.06,0-.09-.07-.09-.22s0-.31-.02-.49c-.02-.36-.04-.7-.04-1.03,0-1.69.43-3.12,1.3-4.3.02-.02.05-.04.09-.04.07,0,.75.53,2.04,1.59.34.28.51.46.51.54,0,.06-.05.14-.14.23-.31.42-.61,1.08-.9,1.99-.02.08-.05.15-.09.2-.04.05-.16.13-.38.23-.28.12-.95.5-2.02,1.14-.12.1-.21.14-.25.14Z"/>
      </g>
      <path class="cls-2" d="M7.28,31.09c-.24,0-.39-.1-.45-.31-.06-.2-.11-.55-.14-1.05-.02-.63-.07-1.13-.14-1.5-.02-.08-.04-.16-.04-.22,0-.1.05-.17.16-.23.18-.11.81-.26,1.9-.47.99-.19,2.6-.54,4.84-1.05,3.53-.83,7.27-1.64,11.23-2.42,3.96-.78,7.69-1.32,11.19-1.63,1.81-.18,3.56-.27,5.28-.27,2.04,0,3.75.11,5.15.34,1.4.23,2.46.5,3.18.8.72.31,1.08.58,1.08.82,0,.07-.03.14-.09.2-.21.21-.41.42-.61.65-.4.43-.81.84-1.25,1.21-.51.46-1.02.72-1.54.78-.08,0-.14-.14-.16-.43-.04-.35-.07-.54-.11-.59-.04-.04-.23-.11-.6-.19-1.08-.22-2.51-.33-4.28-.33-2.95,0-6.28.28-9.98.85-3.7.57-7.32,1.22-10.85,1.97-3.53.75-6.58,1.42-9.16,2.02-.92.22-1.9.44-2.96.67-.86.24-1.4.36-1.64.36ZM15.6,34.3c-.12,0-.19-.02-.22-.05-.02-.04-.04-.1-.05-.2-.17-.89-.34-1.54-.52-1.93-.12-.24-.18-.43-.18-.58,0-.17.14-.29.42-.35.28-.07.78-.14,1.52-.22.73-.08,1.78-.22,3.13-.42,5.56-.83,9.76-1.31,12.59-1.43.14,0,.51-.02,1.08-.05.51,0,1.12.07,1.84.21.72.14,1.36.3,1.92.49.55.19.83.35.83.5,0,.04-.02.07-.05.09-.63.47-1.11.84-1.45,1.12-.3.24-.54.42-.72.55-.18.13-.35.21-.51.25-.16.04-.36.06-.6.06l-1.55-.02c-.81,0-1.99.05-3.54.16s-3.69.35-6.41.73c-2.72.38-4.62.66-5.69.84-.96.17-1.57.25-1.82.25Z"/>
    </g>
  </g>
</svg>